<?xml version="1.0" encoding="UTF-8"?>
<svg version="1.1" xmlns="http://www.w3.org/2000/svg" width="500" height="500">
<path d="M0 0 C0.99 0 1.98 0 3 0 C3.25829212 14.06538058 3.45084443 28.13038747 3.56993389 42.19766235 C3.62711905 48.73124966 3.7045649 55.26323369 3.82983398 61.79589844 C3.95016823 68.11140475 4.01529476 74.42537831 4.04364967 80.74194336 C4.06383118 83.14046331 4.10324054 85.53890803 4.16303062 87.93676758 C4.52236369 102.95772469 3.43552171 112.75847479 -6.60262108 124.27867126 C-16.73523885 136.76030088 -22.69943761 153.7031446 -26.4375 169.125 C-26.68367065 170.13614868 -26.68367065 170.13614868 -26.93481445 171.16772461 C-27.98209536 175.88488409 -28.13354915 180.20291435 -28 185 C-25.54141317 181.3960062 -23.08317409 177.79177533 -20.625 174.1875 C-19.92632812 173.16333984 -19.22765625 172.13917969 -18.5078125 171.08398438 C-17.8375 170.10107422 -17.1671875 169.11816406 -16.4765625 168.10546875 C-15.85861816 167.19949951 -15.24067383 166.29353027 -14.60400391 165.36010742 C-13.39378561 163.57941028 -12.19428262 161.79142392 -11 160 C-10.34 160 -9.68 160 -9 160 C-8.74605469 159.43539062 -8.49210937 158.87078125 -8.23046875 158.2890625 C-6.83967697 155.70174826 -5.18700727 153.63619345 -3.3125 151.375 C0.17305621 147.09727192 3.36829843 142.6996439 6.45703125 138.12890625 C7.85906369 136.19445642 9.18268544 134.54845159 11 133 C11.66 133 12.32 133 13 133 C13 132.34 13 131.68 13 131 C13.66 131 14.32 131 15 131 C15 130.34 15 129.68 15 129 C15.66 129 16.32 129 17 129 C17 128.34 17 127.68 17 127 C17.66 127 18.32 127 19 127 C19 126.34 19 125.68 19 125 C19.66 125 20.32 125 21 125 C21 124.34 21 123.68 21 123 C22.93755578 121.23132784 24.87198432 119.60884653 26.9375 118 C27.56140625 117.51305664 28.1853125 117.02611328 28.828125 116.52441406 C44.39965608 104.66148728 62.93189723 94.56560207 82 90 C81 93 81 93 78.8828125 94.32421875 C77.97273438 94.77410156 77.06265625 95.22398437 76.125 95.6875 C70.74287471 98.48057679 66.0221711 101.77784883 61.21484375 105.4609375 C59 107 59 107 57 107 C57 107.66 57 108.32 57 109 C56.34 109 55.68 109 55 109 C57.88492187 114.26186746 61.81838086 118.24003356 65.91796875 122.57421875 C68 125 68 125 68 127 C68.66 127 69.32 127 70 127 C70 127.66 70 128.32 70 129 C70.66 129 71.32 129 72 129 C73.56432787 130.69274284 75.05328572 132.45569852 76.5 134.25 C77.2940625 135.22453125 78.088125 136.1990625 78.90625 137.203125 C80.58748034 139.44894762 81.88135899 141.4465803 83 144 C83.66 144 84.32 144 85 144 C85 144.66 85 145.32 85 146 C85.66 146 86.32 146 87 146 C87 146.66 87 147.32 87 148 C87.66 148 88.32 148 89 148 C90.56432787 149.69274284 92.05328572 151.45569852 93.5 153.25 C94.2940625 154.22453125 95.088125 155.1990625 95.90625 156.203125 C98 159 98 159 99.03125 161.234375 C99.8658975 163.15313414 99.8658975 163.15313414 101.85546875 163.92578125 C104.84287676 165.42220603 106.27225165 167.56018197 108.3125 170.1875 C111.47474847 174.16230659 114.69966284 177.81917738 118.33984375 181.3515625 C121.41288373 184.40291044 124.18155422 187.71530575 127 191 C128.0125488 192.16056825 129.02561281 193.32068711 130.0390625 194.48046875 C131.13046053 195.73676012 132.22160486 196.99327193 133.3125 198.25 C133.84061279 198.85271729 134.36872559 199.45543457 134.9128418 200.07641602 C137.36204029 202.91214285 139.56601845 205.4889179 141 209 C141.66 209 142.32 209 143 209 C143 209.66 143 210.32 143 211 C143.66 211 144.32 211 145 211 C145 211.66 145 212.32 145 213 C145.66 213 146.32 213 147 213 C147 213.99 147 214.98 147 216 C143.17404178 216.34781438 140.74580211 215.48489977 137.29125977 213.9519043 C132.12983545 211.8075896 126.78830439 210.11405962 121.5 208.3125 C120.2106571 207.87070449 118.92143316 207.4285617 117.63232422 206.98608398 C115.0192242 206.08932418 112.40578625 205.19356299 109.79199219 204.29882812 C104.23329594 202.39546955 98.67778475 200.48303607 93.125 198.5625 C92.20009766 198.24514893 91.27519531 197.92779785 90.32226562 197.60083008 C86.57751051 196.30443483 82.87492397 194.98856593 79.2421875 193.40234375 C76.08966594 191.93414719 76.08966594 191.93414719 72.9453125 191.23828125 C68.76940274 189.48262688 66.67774364 186.66027724 63.875 183.1875 C62.73374367 181.81996576 61.59047216 180.45411105 60.4453125 179.08984375 C59.87200195 178.4026123 59.29869141 177.71538086 58.70800781 177.00732422 C56.14870091 173.99951671 53.45638834 171.12504606 50.75 168.25 C46.25104419 163.44346101 42.03310968 158.49814004 37.9375 153.33984375 C36.03006133 150.95012858 36.03006133 150.95012858 33.75 148.81640625 C32 147 32 147 32 145 C31.34 145 30.68 145 30 145 C30 144.34 30 143.68 30 143 C29.34 143 28.68 143 28 143 C26.61767557 141.37373596 25.28062485 139.7074998 24 138 C20.56661484 139.20632452 18.49635415 140.38477184 16 143 C15.34 143 14.68 143 14 143 C14 143.66 14 144.32 14 145 C13.34 145 12.68 145 12 145 C12 145.66 12 146.32 12 147 C10.625 148.625 10.625 148.625 9 150 C8.34 150 7.68 150 7 150 C7 150.66 7 151.32 7 152 C6.34 152 5.68 152 5 152 C4.37740092 156.26995116 3.9425417 160.37462138 3.96484375 164.69140625 C3.95966267 177.49645357 3.95966267 177.49645357 1.33203125 181.61328125 C-0.69173762 183.32570107 -2.7212503 184.65424782 -5 186 C-5.98950237 186.94765774 -6.95282239 187.92420903 -7.875 188.9375 C-10 191 -10 191 -12 191 C-12 191.66 -12 192.32 -12 193 C-12.66 193 -13.32 193 -14 193 C-14 193.66 -14 194.32 -14 195 C-15.64453125 196.69140625 -15.64453125 196.69140625 -17.8125 198.5625 C-18.52019531 199.18253906 -19.22789062 199.80257812 -19.95703125 200.44140625 C-22 202 -22 202 -25 203 C-25 203.66 -25 204.32 -25 205 C-26.57421875 206.5859375 -26.57421875 206.5859375 -28.6875 208.375 C-29.77611328 209.30119141 -29.77611328 209.30119141 -30.88671875 210.24609375 C-33.23449112 212.19461463 -35.59564775 214.1215998 -38 216 C-39.89636852 214.10363148 -39.15557783 210.76276211 -39.17408752 208.24520874 C-39.18058648 207.53058806 -39.18708543 206.81596738 -39.19378132 206.07969153 C-39.21428359 203.66690856 -39.22742747 201.2541426 -39.24047852 198.84130859 C-39.25328355 197.11854819 -39.26641887 195.39579021 -39.27986145 193.67303467 C-39.3958917 177.92831993 -39.45241215 162.18296518 -39.49662876 146.43790245 C-39.52987075 134.79510094 -39.58941564 123.15307754 -39.68413979 111.51060998 C-39.74845485 103.32966676 -39.78216342 95.14893562 -39.79337829 86.96774924 C-39.80094275 82.07943693 -39.82215539 77.1920634 -39.87640572 72.30402756 C-39.92687264 67.70232245 -39.93944019 63.10205248 -39.92315483 58.50011444 C-39.92375824 56.81303033 -39.93802196 55.12588616 -39.96710205 53.43905258 C-40.17611876 40.6433617 -40.17611876 40.6433617 -37.19212151 36.47389603 C-35.20923794 34.74487114 -33.22597083 33.38719536 -31 32 C-30.67 31.34 -30.34 30.68 -30 30 C-29.34 30 -28.68 30 -28 30 C-28 29.34 -28 28.68 -28 28 C-27.34 28 -26.68 28 -26 28 C-25.731875 27.360625 -25.46375 26.72125 -25.1875 26.0625 C-24 24 -24 24 -21 23 C-21 22.34 -21 21.68 -21 21 C-20.34 21 -19.68 21 -19 21 C-18.7525 20.4225 -18.505 19.845 -18.25 19.25 C-16.81700012 16.67060021 -15.21575324 14.93878408 -13 13 C-12.34 13 -11.68 13 -11 13 C-11 12.34 -11 11.68 -11 11 C-10.34 11 -9.68 11 -9 11 C-9 10.34 -9 9.68 -9 9 C-7.01739574 7.31267723 -5.0167658 5.64633943 -3 4 C-2.67 3.34 -2.34 2.68 -2 2 C-1.34 2 -0.68 2 0 2 C0 1.34 0 0.68 0 0 Z M-30 187 C-29 189 -29 189 -29 189 Z " fill="#F2F2F2" transform="translate(212,143)"/>
<path d="M0 0 C0.99 0.33 1.98 0.66 3 1 C2.67 1.66 2.34 2.32 2 3 C1.34 3 0.68 3 0 3 C-0.4031543 3.88316895 -0.4031543 3.88316895 -0.81445312 4.78417969 C-2.7746081 8.44776424 -5.6742428 11.23422442 -8.5 14.25 C-9.09425781 14.8996875 -9.68851563 15.549375 -10.30078125 16.21875 C-10.87183594 16.83234375 -11.44289063 17.4459375 -12.03125 18.078125 C-12.55267578 18.63918945 -13.07410156 19.20025391 -13.61132812 19.77832031 C-15 21 -15 21 -17 21 C-17.268125 21.5775 -17.53625 22.155 -17.8125 22.75 C-19.02929189 25.05550043 -20.30333879 27.02056192 -22 29 C-22.66 29 -23.32 29 -24 29 C-24.38478516 29.87785156 -24.38478516 29.87785156 -24.77734375 30.7734375 C-26.10562162 33.19234608 -27.56524801 34.73198872 -29.5625 36.625 C-32.14015389 39.04521959 -32.14015389 39.04521959 -34 42 C-34.66 42 -35.32 42 -36 42 C-36.268125 42.598125 -36.53625 43.19625 -36.8125 43.8125 C-37.99917406 45.99847854 -39.09599113 47.41332594 -41 49 C-41.66 49 -42.32 49 -43 49 C-43.25450928 49.57669434 -43.50901855 50.15338867 -43.77124023 50.74755859 C-45.1345011 53.24655417 -46.68693819 54.99018536 -48.66015625 57.0390625 C-49.37107422 57.78414062 -50.08199219 58.52921875 -50.81445312 59.296875 C-51.92723633 60.44929688 -51.92723633 60.44929688 -53.0625 61.625 C-54.53459437 63.15689422 -56.00474702 64.69065748 -57.47265625 66.2265625 C-58.12500244 66.90283691 -58.77734863 67.57911133 -59.44946289 68.27587891 C-61.07637241 69.93143911 -61.07637241 69.93143911 -62 72 C-62.66 72 -63.32 72 -64 72 C-64.4021875 72.8971875 -64.4021875 72.8971875 -64.8125 73.8125 C-65.99917406 75.99847854 -67.09599113 77.41332594 -69 79 C-69.66 79 -70.32 79 -71 79 C-71.38502686 79.86830444 -71.38502686 79.86830444 -71.77783203 80.75415039 C-73.11463878 83.21065963 -74.61764335 84.92004201 -76.5546875 86.93359375 C-77.25207031 87.66513672 -77.94945312 88.39667969 -78.66796875 89.15039062 C-79.76044922 90.28250977 -79.76044922 90.28250977 -80.875 91.4375 C-82.31163532 92.93453054 -83.74658003 94.43318565 -85.1796875 95.93359375 C-85.85757324 96.63911377 -86.53545898 97.34463379 -87.23388672 98.0715332 C-89.13707771 100.06945043 -89.13707771 100.06945043 -91 102.8203125 C-93.88636372 105.96599796 -97.17134945 106.99859224 -101.125 108.4375 C-107.87826867 111.04785676 -113.91597685 114.04652428 -120 118 C-126.6130031 122 -126.6130031 122 -129 122 C-129 122.66 -129 123.32 -129 124 C-130.64453125 125.47265625 -130.64453125 125.47265625 -132.8125 127.0625 C-133.52019531 127.58972656 -134.22789062 128.11695313 -134.95703125 128.66015625 C-137 130 -137 130 -140 131 C-140 131.66 -140 132.32 -140 133 C-141.57421875 134.515625 -141.57421875 134.515625 -143.6875 136.25 C-146.35349133 138.50075728 -148.71010091 140.70049545 -150.875 143.4375 C-151.57625 144.283125 -152.2775 145.12875 -153 146 C-153.66 146 -154.32 146 -155 146 C-155.27690674 146.58467041 -155.55381348 147.16934082 -155.83911133 147.77172852 C-156.9458147 149.89599385 -158.15664098 151.72559102 -159.57421875 153.65234375 C-160.07405273 154.34078369 -160.57388672 155.02922363 -161.08886719 155.73852539 C-161.61641602 156.46418701 -162.14396484 157.18984863 -162.6875 157.9375 C-167.77722863 165.02261623 -172.13670283 172.17818355 -176 180 C-176.66 180 -177.32 180 -178 180 C-177.42420215 174.17199204 -175.81623772 169.22840691 -173.625 163.8125 C-173.2755835 162.94608887 -172.92616699 162.07967773 -172.56616211 161.18701172 C-164.64831355 142.13399042 -153.34227167 124.79526778 -141.26171875 108.15625 C-139.70782409 105.98777524 -138.25605766 103.84062031 -136.83203125 101.59375 C-136.22746094 100.7378125 -135.62289062 99.881875 -135 99 C-134.34 99 -133.68 99 -133 99 C-132.731875 98.2575 -132.46375 97.515 -132.1875 96.75 C-131.04723249 94.10938051 -129.90619694 92.14447156 -128 90 C-127.34 90 -126.68 90 -126 90 C-125.7525 89.278125 -125.505 88.55625 -125.25 87.8125 C-123.87730408 84.72393418 -122.27646704 82.48988582 -120 80 C-119.34 80 -118.68 80 -118 80 C-117.75378906 79.27167969 -117.50757813 78.54335937 -117.25390625 77.79296875 C-115.87026921 74.71103578 -114.23856849 72.77226287 -111.9375 70.3125 C-109.13706887 67.38568199 -109.13706887 67.38568199 -107 64 C-106.34 64 -105.68 64 -105 64 C-104.7421875 63.43796875 -104.484375 62.8759375 -104.21875 62.296875 C-102.85830223 59.73295421 -101.27211038 57.54773635 -99.5 55.25 C-98.8915625 54.45078125 -98.283125 53.6515625 -97.65625 52.828125 C-97.1096875 52.22484375 -96.563125 51.6215625 -96 51 C-95.34 51 -94.68 51 -94 51 C-93.773125 50.46375 -93.54625 49.9275 -93.3125 49.375 C-89.37624757 42.25225751 -85.37013822 39.86260441 -78 37 C-70.19057704 33.76717154 -62.55231457 30.34622593 -55.01293945 26.52441406 C-47.92183541 22.93780348 -40.77854401 19.45992656 -33.625 16 C-32.99677338 15.69599274 -32.36854675 15.39198547 -31.72128296 15.07876587 C-23.2201611 10.97070059 -14.68151083 6.96854203 -6.01416016 3.22070312 C-2.77364521 1.98202646 -2.77364521 1.98202646 0 0 Z " fill="#E60E18" transform="translate(368,132)"/>
<path d="M0 0 C2.35546875 2.14453125 2.35546875 2.14453125 5 5 C5.88300781 5.93199219 6.76601563 6.86398437 7.67578125 7.82421875 C8.54589844 8.76910156 9.41601562 9.71398437 10.3125 10.6875 C11.19550781 11.64011719 12.07851563 12.59273438 12.98828125 13.57421875 C15 16 15 16 15 18 C15.66 18 16.32 18 17 18 C17 18.66 17 19.32 17 20 C17.66 20 18.32 20 19 20 C20.56432787 21.69274284 22.05328572 23.45569852 23.5 25.25 C24.2940625 26.22453125 25.088125 27.1990625 25.90625 28.203125 C27.58748034 30.44894762 28.88135899 32.4465803 30 35 C30.66 35 31.32 35 32 35 C32 35.66 32 36.32 32 37 C32.66 37 33.32 37 34 37 C34 37.66 34 38.32 34 39 C34.66 39 35.32 39 36 39 C37.56432787 40.69274284 39.05328572 42.45569852 40.5 44.25 C41.2940625 45.22453125 42.088125 46.1990625 42.90625 47.203125 C45 50 45 50 46.03125 52.234375 C46.8658975 54.15313414 46.8658975 54.15313414 48.85546875 54.92578125 C51.84287676 56.42220603 53.27225165 58.56018197 55.3125 61.1875 C58.47474847 65.16230659 61.69966284 68.81917738 65.33984375 72.3515625 C68.41288373 75.40291044 71.18155422 78.71530575 74 82 C75.0125488 83.16056825 76.02561281 84.32068711 77.0390625 85.48046875 C78.13046053 86.73676012 79.22160486 87.99327193 80.3125 89.25 C80.84061279 89.85271729 81.36872559 90.45543457 81.9128418 91.07641602 C84.36204029 93.91214285 86.56601845 96.4889179 88 100 C88.66 100 89.32 100 90 100 C90 100.66 90 101.32 90 102 C90.66 102 91.32 102 92 102 C92 102.66 92 103.32 92 104 C92.66 104 93.32 104 94 104 C94 104.99 94 105.98 94 107 C90.17404178 107.34781438 87.74580211 106.48489977 84.29125977 104.9519043 C79.12983545 102.8075896 73.78830439 101.11405962 68.5 99.3125 C67.2106571 98.87070449 65.92143316 98.4285617 64.63232422 97.98608398 C62.0192242 97.08932418 59.40578625 96.19356299 56.79199219 95.29882812 C51.23329594 93.39546955 45.67778475 91.48303607 40.125 89.5625 C39.20009766 89.24514893 38.27519531 88.92779785 37.32226562 88.60083008 C33.57751051 87.30443483 29.87492397 85.98856593 26.2421875 84.40234375 C23.08966594 82.93414719 23.08966594 82.93414719 19.9453125 82.23828125 C15.76940274 80.48262688 13.67774364 77.66027724 10.875 74.1875 C9.73374367 72.81996576 8.59047216 71.45411105 7.4453125 70.08984375 C6.87200195 69.4026123 6.29869141 68.71538086 5.70800781 68.00732422 C3.14870091 64.99951671 0.45638834 62.12504606 -2.25 59.25 C-6.74895581 54.44346101 -10.96689032 49.49814004 -15.0625 44.33984375 C-16.96993867 41.95012858 -16.96993867 41.95012858 -19.25 39.81640625 C-21 38 -21 38 -21 36 C-21.66 36 -22.32 36 -23 36 C-23 35.34 -23 34.68 -23 34 C-23.66 34 -24.32 34 -25 34 C-26.38232443 32.37373596 -27.71937515 30.7074998 -29 29 C-32.37503669 30.1858237 -34.64722731 31.27573689 -37 34 C-37.99 33.67 -38.98 33.34 -40 33 C-40.99 33 -41.98 33 -43 33 C-43.66 32.67 -44.32 32.34 -45 32 C-32.87126448 20.50501823 -20.16070813 10.85521371 -6 2 C-3 0 -3 0 0 0 Z M-38 29 C-38.33 29.66 -38.66 30.32 -39 31 C-38.01 30.67 -37.02 30.34 -36 30 C-36.66 29.67 -37.32 29.34 -38 29 Z " fill="#EFEFEF" transform="translate(265,252)"/>
<path d="M0 0 C0.99 0.33 1.98 0.66 3 1 C2.67 1.66 2.34 2.32 2 3 C1.34 3 0.68 3 0 3 C-0.4031543 3.88316895 -0.4031543 3.88316895 -0.81445312 4.78417969 C-2.7746081 8.44776424 -5.6742428 11.23422442 -8.5 14.25 C-9.09425781 14.8996875 -9.68851563 15.549375 -10.30078125 16.21875 C-10.87183594 16.83234375 -11.44289063 17.4459375 -12.03125 18.078125 C-12.55267578 18.63918945 -13.07410156 19.20025391 -13.61132812 19.77832031 C-15 21 -15 21 -17 21 C-17.268125 21.5775 -17.53625 22.155 -17.8125 22.75 C-19.02929189 25.05550043 -20.30333879 27.02056192 -22 29 C-22.66 29 -23.32 29 -24 29 C-24.38478516 29.87785156 -24.38478516 29.87785156 -24.77734375 30.7734375 C-26.10562162 33.19234608 -27.56524801 34.73198872 -29.5625 36.625 C-32.14015389 39.04521959 -32.14015389 39.04521959 -34 42 C-34.66 42 -35.32 42 -36 42 C-36.268125 42.598125 -36.53625 43.19625 -36.8125 43.8125 C-37.99917406 45.99847854 -39.09599113 47.41332594 -41 49 C-41.66 49 -42.32 49 -43 49 C-43.25450928 49.57669434 -43.50901855 50.15338867 -43.77124023 50.74755859 C-45.1345011 53.24655417 -46.68693819 54.99018536 -48.66015625 57.0390625 C-49.37107422 57.78414062 -50.08199219 58.52921875 -50.81445312 59.296875 C-51.92723633 60.44929688 -51.92723633 60.44929688 -53.0625 61.625 C-54.53459437 63.15689422 -56.00474702 64.69065748 -57.47265625 66.2265625 C-58.12500244 66.90283691 -58.77734863 67.57911133 -59.44946289 68.27587891 C-61.07637241 69.93143911 -61.07637241 69.93143911 -62 72 C-62.66 72 -63.32 72 -64 72 C-64.4021875 72.8971875 -64.4021875 72.8971875 -64.8125 73.8125 C-65.99917406 75.99847854 -67.09599113 77.41332594 -69 79 C-69.66 79 -70.32 79 -71 79 C-71.38502686 79.86830444 -71.38502686 79.86830444 -71.77783203 80.75415039 C-73.11463878 83.21065963 -74.61764335 84.92004201 -76.5546875 86.93359375 C-77.25207031 87.66513672 -77.94945312 88.39667969 -78.66796875 89.15039062 C-79.76044922 90.28250977 -79.76044922 90.28250977 -80.875 91.4375 C-82.31163532 92.93453054 -83.74658003 94.43318565 -85.1796875 95.93359375 C-85.85757324 96.63911377 -86.53545898 97.34463379 -87.23388672 98.0715332 C-89.13707771 100.06945043 -89.13707771 100.06945043 -91 102.8203125 C-93.88636372 105.96599796 -97.17134945 106.99859224 -101.125 108.4375 C-107.87826867 111.04785676 -113.91597685 114.04652428 -120 118 C-126.6130031 122 -126.6130031 122 -129 122 C-129 122.66 -129 123.32 -129 124 C-130.64453125 125.47265625 -130.64453125 125.47265625 -132.8125 127.0625 C-133.52019531 127.58972656 -134.22789062 128.11695313 -134.95703125 128.66015625 C-137 130 -137 130 -140 131 C-140 131.66 -140 132.32 -140 133 C-141.57421875 134.515625 -141.57421875 134.515625 -143.6875 136.25 C-146.35349133 138.50075728 -148.71010091 140.70049545 -150.875 143.4375 C-151.57625 144.283125 -152.2775 145.12875 -153 146 C-153.66 146 -154.32 146 -155 146 C-155.27690674 146.58467041 -155.55381348 147.16934082 -155.83911133 147.77172852 C-156.9458147 149.89599385 -158.15664098 151.72559102 -159.57421875 153.65234375 C-160.07405273 154.34078369 -160.57388672 155.02922363 -161.08886719 155.73852539 C-161.61641602 156.46418701 -162.14396484 157.18984863 -162.6875 157.9375 C-167.77722863 165.02261623 -172.13670283 172.17818355 -176 180 C-176.66 180 -177.32 180 -178 180 C-177.42420215 174.17199204 -175.81623772 169.22840691 -173.625 163.8125 C-173.2755835 162.94608887 -172.92616699 162.07967773 -172.56616211 161.18701172 C-164.64831355 142.13399042 -153.34227167 124.79526778 -141.26171875 108.15625 C-139.70782409 105.98777524 -138.25605766 103.84062031 -136.83203125 101.59375 C-136.22746094 100.7378125 -135.62289062 99.881875 -135 99 C-134.34 99 -133.68 99 -133 99 C-133 101.97 -133 104.94 -133 108 C-133.99 108.33 -134.98 108.66 -136 109 C-136 109.99 -136 110.98 -136 112 C-136.3062434 113.33981486 -136.63451555 114.67511887 -137 116 C-138.65 116 -140.3 116 -142 116 C-143.80230168 119.82989106 -144.19622241 122.78121808 -144 127 C-135.44541438 123.8175875 -135.44541438 123.8175875 -129.625 117.25 C-129.41875 116.5075 -129.2125 115.765 -129 115 C-128.34 115 -127.68 115 -127 115 C-127 115.66 -127 116.32 -127 117 C-125.35 117 -123.7 117 -122 117 C-122 116.01 -122 115.02 -122 114 C-121.195625 113.87625 -120.39125 113.7525 -119.5625 113.625 C-118.2940625 113.315625 -118.2940625 113.315625 -117 113 C-116.67 112.34 -116.34 111.68 -116 111 C-114.68 111 -113.36 111 -112 111 C-112 110.34 -112 109.68 -112 109 C-109.36 108.01 -106.72 107.02 -104 106 C-104 105.34 -104 104.68 -104 104 C-99.545 103.01 -99.545 103.01 -95 102 C-95 101.34 -95 100.68 -95 100 C-93.88818359 99.63841797 -93.88818359 99.63841797 -92.75390625 99.26953125 C-89.62498183 97.82711928 -88.15039792 96.30514267 -85.9375 93.6875 C-85.25300781 92.88828125 -84.56851563 92.0890625 -83.86328125 91.265625 C-82.42176718 89.51284059 -81.01574705 87.73083172 -79.625 85.9375 C-79.08875 85.298125 -78.5525 84.65875 -78 84 C-77.34 84 -76.68 84 -76 84 C-75.62875 83.13375 -75.62875 83.13375 -75.25 82.25 C-73.81700012 79.67060021 -72.21575324 77.93878408 -70 76 C-69.34 76 -68.68 76 -68 76 C-67.77699219 75.45859375 -67.55398438 74.9171875 -67.32421875 74.359375 C-65.57941037 71.25063086 -63.24776945 68.82037912 -60.8125 66.25 C-57.69181422 62.92244224 -54.61197973 59.57430205 -51.62109375 56.12890625 C-47.92896477 51.88748892 -44.10629007 47.77949518 -40.25 43.6875 C-39.59128906 42.98560547 -38.93257812 42.28371094 -38.25390625 41.56054688 C-34.74714737 37.82972531 -34.74714737 37.82972531 -33 36 C-32.47760742 35.4325708 -31.95521484 34.8651416 -31.41699219 34.28051758 C-30 33 -30 33 -28 33 C-27.91105469 32.17242187 -27.91105469 32.17242187 -27.8203125 31.328125 C-26.62960858 27.94879387 -24.45453739 26.21004928 -21.875 23.75 C-20.87044175 22.77805727 -19.86784115 21.8040872 -18.8671875 20.828125 C-18.37702148 20.35052734 -17.88685547 19.87292969 -17.38183594 19.38085938 C-14.92640639 16.92716511 -12.68031668 14.30277368 -10.4375 11.65625 C-9.013774 10.01587004 -7.62237412 8.44602911 -6 7 C-5.34 7 -4.68 7 -4 7 C-4 5.68 -4 4.36 -4 3 C-2.1875 1.1875 -2.1875 1.1875 0 0 Z " fill="#900B12" transform="translate(368,132)"/>
<path d="M0 0 C0.99 0 1.98 0 3 0 C2 3 2 3 -0.1171875 4.32421875 C-1.02726562 4.77410156 -1.93734375 5.22398437 -2.875 5.6875 C-8.25712529 8.48057679 -12.9778289 11.77784883 -17.78515625 15.4609375 C-20 17 -20 17 -22 17 C-22 17.66 -22 18.32 -22 19 C-22.66 19 -23.32 19 -24 19 C-24.495 20.485 -24.495 20.485 -25 22 C-25.495 20.515 -25.495 20.515 -26 19 C-40.5241867 26.15229928 -53.32189779 35.86326676 -65 47 C-69.58221751 51.10156532 -74.25651947 55.08662856 -79 59 C-77.10129204 52.92413452 -72.77538235 47.18984501 -68 43 C-67.34 43 -66.68 43 -66 43 C-66 42.34 -66 41.68 -66 41 C-65.34 41 -64.68 41 -64 41 C-64 40.34 -64 39.68 -64 39 C-63.34 39 -62.68 39 -62 39 C-62 38.34 -62 37.68 -62 37 C-61.34 37 -60.68 37 -60 37 C-60 36.34 -60 35.68 -60 35 C-59.34 35 -58.68 35 -58 35 C-58 34.34 -58 33.68 -58 33 C-56.06244422 31.23132784 -54.12801568 29.60884653 -52.0625 28 C-51.43859375 27.51305664 -50.8146875 27.02611328 -50.171875 26.52441406 C-36.29098426 15.94947511 -19.91967473 6.79725916 -3.23046875 1.7265625 C-1.05234606 1.20345471 -1.05234606 1.20345471 0 0 Z " fill="#B81D23" transform="translate(291,233)"/>
<path d="M0 0 C-2.16522438 3.24783658 -2.55292685 3.46012647 -6.0625 4.5 C-7.25552734 4.87318359 -7.25552734 4.87318359 -8.47265625 5.25390625 C-10.16435066 5.75330908 -11.85978246 6.24021403 -13.55859375 6.71484375 C-14.36425781 6.95332031 -15.16992188 7.19179687 -16 7.4375 C-16.7425 7.64246094 -17.485 7.84742188 -18.25 8.05859375 C-20.2154731 8.86403816 -20.2154731 8.86403816 -20.75 11.09765625 C-20.8325 11.72542969 -20.915 12.35320312 -21 13 C-21.66 13 -22.32 13 -23 13 C-23.33 13.99 -23.66 14.98 -24 16 C-24.66 16 -25.32 16 -26 16 C-29.14736836 17.27620359 -29.14736836 17.27620359 -31 20 C-30.34 20.33 -29.68 20.66 -29 21 C-29.99 21.99 -30.98 22.98 -32 24 C-32 23.34 -32 22.68 -32 22 C-32.763125 22.33 -33.52625 22.66 -34.3125 23 C-37 24 -37 24 -40 24 C-43.43156089 24.51473413 -45.04076956 25.0271797 -48 27 C-50.32548007 27.69356423 -52.65880445 28.36149212 -55 29 C-55.99 29.495 -55.99 29.495 -57 30 C-57.81339844 30.08894531 -58.62679688 30.17789063 -59.46484375 30.26953125 C-64.53156368 31.31646675 -68.90684219 33.47436634 -73.5625 35.6875 C-74.49513672 36.10966797 -75.42777344 36.53183594 -76.38867188 36.96679688 C-81.94068377 39.59044897 -85.48911802 41.9303755 -89 47 C-89.33 46.34 -89.66 45.68 -90 45 C-85.96216044 36.45841631 -79.87947109 34.34639442 -71.4453125 30.98046875 C-65.1921357 28.4470001 -59.13892798 25.63103538 -53.12597656 22.57983398 C-46.53115636 19.24198827 -39.88492398 16.01311841 -33.22872925 12.80001831 C-31.97272016 12.19370703 -30.71695354 11.58689317 -29.4614563 10.97952271 C-26.48401167 9.53933944 -23.5034859 8.10621045 -20.51806641 6.68261719 C-18.12111272 5.53620464 -15.73467605 4.3771789 -13.35302734 3.20019531 C-12.19883301 2.64170898 -11.04463867 2.08322266 -9.85546875 1.5078125 C-8.3089563 0.74815186 -8.3089563 0.74815186 -6.73120117 -0.02685547 C-3.88288969 -1.04172716 -2.75838863 -1.10863072 0 0 Z " fill="#F42E26" transform="translate(366,136)"/>
<path d="M0 0 C0.99 0.33 1.98 0.66 3 1 C2.67 1.66 2.34 2.32 2 3 C1.34 3 0.68 3 0 3 C-0.4031543 3.88316895 -0.4031543 3.88316895 -0.81445312 4.78417969 C-2.7746081 8.44776424 -5.6742428 11.23422442 -8.5 14.25 C-9.09425781 14.8996875 -9.68851562 15.549375 -10.30078125 16.21875 C-10.87183594 16.83234375 -11.44289063 17.4459375 -12.03125 18.078125 C-12.55267578 18.63918945 -13.07410156 19.20025391 -13.61132812 19.77832031 C-15 21 -15 21 -17 21 C-17.268125 21.5775 -17.53625 22.155 -17.8125 22.75 C-19.02929189 25.05550043 -20.30333879 27.02056192 -22 29 C-22.66 29 -23.32 29 -24 29 C-24.25652344 29.58523437 -24.51304687 30.17046875 -24.77734375 30.7734375 C-26.10562162 33.19234608 -27.56524801 34.73198872 -29.5625 36.625 C-32.14015389 39.04521959 -32.14015389 39.04521959 -34 42 C-34.66 42 -35.32 42 -36 42 C-36.268125 42.598125 -36.53625 43.19625 -36.8125 43.8125 C-37.99917406 45.99847854 -39.09599113 47.41332594 -41 49 C-41.66 49 -42.32 49 -43 49 C-43.25450928 49.57669434 -43.50901855 50.15338867 -43.77124023 50.74755859 C-45.1345011 53.24655417 -46.68693819 54.99018536 -48.66015625 57.0390625 C-49.37107422 57.78414062 -50.08199219 58.52921875 -50.81445312 59.296875 C-51.55630859 60.06515625 -52.29816406 60.8334375 -53.0625 61.625 C-54.53459437 63.15689422 -56.00474702 64.69065748 -57.47265625 66.2265625 C-58.12500244 66.90283691 -58.77734863 67.57911133 -59.44946289 68.27587891 C-61.07637241 69.93143911 -61.07637241 69.93143911 -62 72 C-62.66 72 -63.32 72 -64 72 C-64.268125 72.598125 -64.53625 73.19625 -64.8125 73.8125 C-65.99917406 75.99847854 -67.09599113 77.41332594 -69 79 C-69.66 79 -70.32 79 -71 79 C-71.25668457 79.57741943 -71.51336914 80.15483887 -71.77783203 80.74975586 C-73.11644594 83.21439917 -74.63114054 84.96578684 -76.5546875 87.00390625 C-77.25207031 87.74447266 -77.94945312 88.48503906 -78.66796875 89.24804688 C-79.39628906 90.01181641 -80.12460937 90.77558594 -80.875 91.5625 C-81.95587891 92.71395508 -81.95587891 92.71395508 -83.05859375 93.88867188 C-86.22210018 97.22987065 -89.2454667 100.31811615 -93 103 C-91.4563893 99.40654069 -89.27381666 96.91811796 -86.625 94.0625 C-84.24884413 91.49164239 -81.96989528 88.96082039 -79.8359375 86.18359375 C-79.23007812 85.46300781 -78.62421875 84.74242187 -78 84 C-77.34 84 -76.68 84 -76 84 C-75.7525 83.4225 -75.505 82.845 -75.25 82.25 C-73.81700012 79.67060021 -72.21575324 77.93878408 -70 76 C-69.34 76 -68.68 76 -68 76 C-67.77699219 75.45859375 -67.55398438 74.9171875 -67.32421875 74.359375 C-65.57941037 71.25063086 -63.24776945 68.82037912 -60.8125 66.25 C-57.69181422 62.92244224 -54.61197973 59.57430205 -51.62109375 56.12890625 C-47.92896477 51.88748892 -44.10629007 47.77949518 -40.25 43.6875 C-39.59128906 42.98560547 -38.93257813 42.28371094 -38.25390625 41.56054688 C-34.74714737 37.82972531 -34.74714737 37.82972531 -33 36 C-32.47760742 35.4325708 -31.95521484 34.8651416 -31.41699219 34.28051758 C-30 33 -30 33 -28 33 C-27.91105469 32.17242187 -27.91105469 32.17242187 -27.8203125 31.328125 C-26.62960858 27.94879387 -24.45453739 26.21004928 -21.875 23.75 C-20.87044175 22.77805727 -19.86784115 21.8040872 -18.8671875 20.828125 C-18.37702148 20.35052734 -17.88685547 19.87292969 -17.38183594 19.38085938 C-14.92640639 16.92716511 -12.68031668 14.30277368 -10.4375 11.65625 C-9.013774 10.01587004 -7.62237412 8.44602911 -6 7 C-5.34 7 -4.68 7 -4 7 C-4 5.68 -4 4.36 -4 3 C-2.1875 1.1875 -2.1875 1.1875 0 0 Z " fill="#5A0608" transform="translate(368,132)"/>
<path d="M0 0 C0.99 0 1.98 0 3 0 C3.09343942 14.27307093 3.16371123 28.54609443 3.20724869 42.81940842 C3.22814226 49.44677065 3.25649282 56.07392773 3.30175781 62.70117188 C3.3451515 69.09429191 3.36912377 75.48721436 3.37950897 81.88047028 C3.38691192 84.32218793 3.40136773 86.76389451 3.42292023 89.20552826 C3.45186718 92.62000582 3.45595952 96.03366209 3.45410156 99.44824219 C3.47567322 100.96954239 3.47567322 100.96954239 3.49768066 102.52157593 C3.45705348 109.40074049 3.45705348 109.40074049 0.97161865 112.65948486 C0.3209845 113.10185486 -0.32964966 113.54422485 -1 114 C-1.33 113.01 -1.66 112.02 -2 111 C-0.515 110.505 -0.515 110.505 1 110 C1 75.68 1 41.36 1 6 C0.01 6.66 -0.98 7.32 -2 8 C-4.1875 7.625 -4.1875 7.625 -6 7 C-4.71937515 5.2925002 -3.38232443 3.62626404 -2 2 C-1.34 2 -0.68 2 0 2 C0 1.34 0 0.68 0 0 Z " fill="#575757" transform="translate(212,143)"/>
<path d="M0 0 C0.66 0 1.32 0 2 0 C2 2.97 2 5.94 2 9 C1.01 9.33 0.02 9.66 -1 10 C-1 10.99 -1 11.98 -1 13 C-1.3062434 14.33981486 -1.63451555 15.67511887 -2 17 C-3.65 17 -5.3 17 -7 17 C-9.24828052 21.49656104 -9.16682272 25.07872966 -9 30 C-9.66 30 -10.32 30 -11 30 C-10.67 31.65 -10.34 33.3 -10 35 C-12.475 35.495 -12.475 35.495 -15 36 C-15 37.65 -15 39.3 -15 41 C-16.32 41 -17.64 41 -19 41 C-19 40.34 -19 39.68 -19 39 C-19.66 39 -20.32 39 -21 39 C-20.5939225 36.6447505 -20.35911431 35.32788697 -18.5625 33.6875 C-16.23936368 31.17851277 -15.88741887 28.2538692 -15 25 C-14.34 24.34 -13.68 23.68 -13 23 C-12.7421875 21.97777344 -12.484375 20.95554688 -12.21875 19.90234375 C-10.95976484 15.16024829 -8.30719725 11.52666873 -5.5 7.5625 C-5.00113281 6.83095703 -4.50226563 6.09941406 -3.98828125 5.34570312 C-1.22995381 1.38569148 -1.22995381 1.38569148 0 0 Z " fill="#9D0914" transform="translate(233,231)"/>
<path d="M0 0 C0.66 0.33 1.32 0.66 2 1 C1.67 1.33 1.34 1.66 1 2 C0.90296868 4.22758257 0.87813327 6.45830926 0.87974548 8.68800354 C0.87846385 9.74896701 0.87846385 9.74896701 0.87715632 10.8313641 C0.87549945 13.21906282 0.88102623 15.60669243 0.88647461 17.99438477 C0.88675646 19.69894407 0.88659878 21.40350351 0.8860321 23.10806274 C0.88574406 27.750428 0.89164194 32.39276765 0.89860606 37.03512692 C0.90483841 41.88115895 0.9054433 46.72719151 0.90663147 51.57322693 C0.90974514 60.75655964 0.917959 69.9398805 0.92798096 79.12320799 C0.939141 89.57526771 0.94465227 100.02732798 0.94967639 110.47939217 C0.96014159 131.98626807 0.97774171 153.49313329 1 175 C1.66 175.33 2.32 175.66 3 176 C1.515 176.99 1.515 176.99 0 178 C-1.90088404 176.09911596 -1.12625073 172.72352354 -1.12698364 170.20483398 C-1.12854363 169.48597991 -1.13010362 168.76712584 -1.13171089 168.0264883 C-1.13572338 165.59966972 -1.13253029 163.17291288 -1.12939453 160.74609375 C-1.13074846 159.01360029 -1.13252835 157.28110712 -1.13470459 155.5486145 C-1.1392799 150.82974167 -1.13748896 146.1108906 -1.1343255 141.39201736 C-1.13180241 136.46503895 -1.1341393 131.53806247 -1.13571167 126.61108398 C-1.13753351 118.3354458 -1.13512667 110.05981652 -1.13037109 101.78417969 C-1.12492845 92.20195139 -1.12669109 82.61974437 -1.1321975 73.03751659 C-1.13672821 64.82608196 -1.13737938 56.61465375 -1.13475883 48.40321827 C-1.13319582 43.49202437 -1.13300293 38.58084048 -1.13629532 33.66964722 C-1.13917343 29.05357741 -1.13719946 24.43753517 -1.13140106 19.82146835 C-1.13007314 18.12225261 -1.13046812 16.42303457 -1.13266373 14.72381973 C-1.13537398 12.41423664 -1.13199567 10.1047433 -1.12698364 7.79516602 C-1.12660662 6.49950211 -1.12622959 5.2038382 -1.12584114 3.86891174 C-1 1 -1 1 0 0 Z " fill="#090909" transform="translate(174,181)"/>
<path d="M0 0 C0.66 0.33 1.32 0.66 2 1 C1.0409375 1.8353125 1.0409375 1.8353125 0.0625 2.6875 C-2.19291024 4.79936473 -2.19291024 4.79936473 -2.3984375 7.453125 C-3.14831736 10.62794103 -4.04208381 11.22880116 -6.6875 13.0625 C-10.9683787 16.19451669 -15.03885805 19.48582265 -19.0625 22.9375 C-19.66360596 23.4528833 -20.26471191 23.9682666 -20.8840332 24.49926758 C-25.46613018 28.46431468 -29.83167688 32.59866503 -34 37 C-34 33.22889411 -32.86672657 32.0319674 -30.6875 29 C-30.07261719 28.13375 -29.45773438 27.2675 -28.82421875 26.375 C-27.3046531 24.39663616 -25.8968718 22.61526338 -24 21 C-23.34 21 -22.68 21 -22 21 C-22 20.34 -22 19.68 -22 19 C-21.34 19 -20.68 19 -20 19 C-20 18.34 -20 17.68 -20 17 C-19.34 17 -18.68 17 -18 17 C-18 16.34 -18 15.68 -18 15 C-17.34 15 -16.68 15 -16 15 C-16 14.34 -16 13.68 -16 13 C-15.34 13 -14.68 13 -14 13 C-14 12.34 -14 11.68 -14 11 C-12.71484375 9.76318359 -12.71484375 9.76318359 -10.9375 8.3984375 C-10.30585938 7.90859375 -9.67421875 7.41875 -9.0234375 6.9140625 C-8.35570312 6.40617187 -7.68796875 5.89828125 -7 5.375 C-6.33226562 4.859375 -5.66453125 4.34375 -4.9765625 3.8125 C-3.3219811 2.53610864 -1.66152632 1.26733768 0 0 Z " fill="#8A1A21" transform="translate(247,255)"/>
<path d="M0 0 C-0.49628906 0.4846875 -0.99257813 0.969375 -1.50390625 1.46875 C-5.63285266 5.54285271 -9.55510567 9.70854079 -13.328125 14.11328125 C-14.94132959 15.93379017 -16.6246631 17.62467514 -18.375 19.3125 C-21.17026918 21.78303969 -21.17026918 21.78303969 -22 25 C-23.6015625 26.54296875 -23.6015625 26.54296875 -25.625 28.1875 C-29.87153297 31.77482388 -33.45237791 35.73176717 -37 40 C-37.495 38.515 -37.495 38.515 -38 37 C-34 33 -30 29 -26 25 C-25.7525 23.845 -25.505 22.69 -25.25 21.5 C-24.8375 20.345 -24.425 19.19 -24 18 C-21.0625 16.8125 -21.0625 16.8125 -18 16 C-16.12689112 14.006748 -16.12689112 14.006748 -15 12 C-15.99 11.67 -16.98 11.34 -18 11 C-17.13342247 6.96163541 -16.5801528 5.38239099 -13.06640625 3.06640625 C-11.91011719 2.57011719 -10.75382812 2.07382813 -9.5625 1.5625 C-7.83193359 0.79099609 -7.83193359 0.79099609 -6.06640625 0.00390625 C-3 -1 -3 -1 0 0 Z " fill="#F92F26" transform="translate(362,140)"/>
<path d="M0 0 C-2.39921383 3.59882075 -4.20280998 3.81204069 -8.19580078 5.04003906 C-13.32944926 6.79743988 -18.18856275 9.19565634 -23.0925293 11.50585938 C-24.92857206 12.37079417 -26.76763878 13.22899171 -28.60742188 14.0859375 C-32.07859474 15.70970218 -35.54136482 17.34971793 -39 19 C-40.01336426 19.48114258 -41.02672852 19.96228516 -42.07080078 20.45800781 C-42.97685059 20.89725586 -43.88290039 21.33650391 -44.81640625 21.7890625 C-45.6060376 22.1701416 -46.39566895 22.5512207 -47.20922852 22.94384766 C-49.16604677 23.87940047 -49.16604677 23.87940047 -50 26 C-51.32 25.67 -52.64 25.34 -54 25 C-53 22 -53 22 -49.52734375 20.23828125 C-48.00133942 19.58703492 -46.47105145 18.94577005 -44.9375 18.3125 C-43.28251784 17.60467889 -41.62889421 16.8936739 -39.9765625 16.1796875 C-39.1402832 15.81842773 -38.30400391 15.45716797 -37.44238281 15.08496094 C-33.83920151 13.48434741 -30.32491709 11.72673725 -26.8125 9.9375 C-25.51194368 9.28080435 -24.21116308 8.62455267 -22.91015625 7.96875 C-22.27094238 7.64648438 -21.63172852 7.32421875 -20.97314453 6.9921875 C-17.57625137 5.28407394 -14.17270479 3.59335021 -10.75 1.9375 C-10.12971924 1.62611084 -9.50943848 1.31472168 -8.87036133 0.99389648 C-5.57473176 -0.58104253 -3.46478967 -1.50083711 0 0 Z " fill="#A6716B" transform="translate(366,136)"/>
<path d="M0 0 C0.33 0 0.66 0 1 0 C1.1875 2.875 1.1875 2.875 1 6 C0.01 6.66 -0.98 7.32 -2 8 C-3.00168531 9.94832935 -3.00168531 9.94832935 -3.6875 12.125 C-3.93886719 12.84945313 -4.19023437 13.57390625 -4.44921875 14.3203125 C-4.63097656 14.87460937 -4.81273437 15.42890625 -5 16 C-4.01 16 -3.02 16 -2 16 C-2 15.34 -2 14.68 -2 14 C-0.68 13.34 0.64 12.68 2 12 C0.62911469 14.83083046 -0.87726723 17.51287101 -2.53125 20.1875 C-3.01207031 20.96867187 -3.49289063 21.74984375 -3.98828125 22.5546875 C-4.99609375 24.18489583 -6.00390625 25.81510417 -7.01171875 27.4453125 C-7.73294922 28.61707031 -7.73294922 28.61707031 -8.46875 29.8125 C-8.90638672 30.52019531 -9.34402344 31.22789062 -9.79492188 31.95703125 C-10.96041611 33.93289344 -12.00046661 35.93599834 -13 38 C-13.66 38 -14.32 38 -15 38 C-14.43550737 31.94602102 -12.61331069 26.8555729 -10.3125 21.25 C-9.95671875 20.37053711 -9.6009375 19.49107422 -9.234375 18.58496094 C-6.57454413 12.12366928 -3.62358811 5.98441066 0 0 Z " fill="#680C11" transform="translate(205,274)"/>
<path d="M0 0 C0.99 0.33 1.98 0.66 3 1 C2.67 1.66 2.34 2.32 2 3 C1.34 3 0.68 3 0 3 C-0.4031543 3.88316895 -0.4031543 3.88316895 -0.81445312 4.78417969 C-2.7746081 8.44776424 -5.6742428 11.23422442 -8.5 14.25 C-9.09425781 14.8996875 -9.68851562 15.549375 -10.30078125 16.21875 C-10.87183594 16.83234375 -11.44289063 17.4459375 -12.03125 18.078125 C-12.55267578 18.63918945 -13.07410156 19.20025391 -13.61132812 19.77832031 C-15 21 -15 21 -17 21 C-17.268125 21.5775 -17.53625 22.155 -17.8125 22.75 C-19.02929189 25.05550043 -20.30333879 27.02056192 -22 29 C-22.66 29 -23.32 29 -24 29 C-24.25652344 29.58523437 -24.51304687 30.17046875 -24.77734375 30.7734375 C-26.10562162 33.19234608 -27.56524801 34.73198872 -29.5625 36.625 C-32.14015389 39.04521959 -32.14015389 39.04521959 -34 42 C-35.64333504 43.03789581 -37.31243867 44.03567924 -39 45 C-39.99 45.66 -40.98 46.32 -42 47 C-40.41438362 43.14406926 -37.93490046 40.66783709 -35 37.75 C-34.113125 36.85796875 -33.22625 35.9659375 -32.3125 35.046875 C-30 33 -30 33 -28 33 C-27.94070313 32.44828125 -27.88140625 31.8965625 -27.8203125 31.328125 C-26.62960858 27.94879387 -24.45453739 26.21004928 -21.875 23.75 C-20.87044175 22.77805727 -19.86784115 21.8040872 -18.8671875 20.828125 C-18.37702148 20.35052734 -17.88685547 19.87292969 -17.38183594 19.38085938 C-14.92640639 16.92716511 -12.68031668 14.30277368 -10.4375 11.65625 C-9.013774 10.01587004 -7.62237412 8.44602911 -6 7 C-5.34 7 -4.68 7 -4 7 C-4 5.68 -4 4.36 -4 3 C-2.1875 1.1875 -2.1875 1.1875 0 0 Z " fill="#5F0D0C" transform="translate(368,132)"/>
<path d="M0 0 C0.99 0.33 1.98 0.66 3 1 C2.71655273 2.89306641 2.71655273 2.89306641 2 5 C-0.65817817 6.31260658 -3.16613643 7.36919952 -5.9375 8.375 C-11.89656397 10.67194829 -17.31165922 13.13923471 -22.71875 16.57421875 C-25.23850812 18.14906757 -27.80298257 19.56346289 -30.4375 20.9375 C-31.64212891 21.56978516 -31.64212891 21.56978516 -32.87109375 22.21484375 C-35 23 -35 23 -38 22 C-37.525625 21.21625 -37.05125 20.4325 -36.5625 19.625 C-35.66101977 18.11051322 -34.78820515 16.5764103 -34 15 C-33.34 15 -32.68 15 -32 15 C-32 15.66 -32 16.32 -32 17 C-30.35 17 -28.7 17 -27 17 C-27 16.01 -27 15.02 -27 14 C-26.195625 13.87625 -25.39125 13.7525 -24.5625 13.625 C-23.716875 13.41875 -22.87125 13.2125 -22 13 C-21.67 12.34 -21.34 11.68 -21 11 C-19.68 11 -18.36 11 -17 11 C-17 10.34 -17 9.68 -17 9 C-14.36 8.01 -11.72 7.02 -9 6 C-9 5.34 -9 4.68 -9 4 C-6.03 3.34 -3.06 2.68 0 2 C0 1.34 0 0.68 0 0 Z " fill="#A00D17" transform="translate(273,232)"/>
<path d="M0 0 C0.99 0 1.98 0 3 0 C2 3 2 3 -0.22265625 4.39453125 C-1.15980469 4.86246094 -2.09695313 5.33039063 -3.0625 5.8125 C-6.84323143 7.75171237 -9.98676402 9.71370195 -13.1875 12.5 C-15.39160187 14.24964787 -16.3625152 15.0101907 -19.19921875 14.96484375 C-21.95524569 14.29686595 -24.46651522 13.26674239 -27 12 C-19.22731431 7.90669215 -11.67083969 4.2910081 -3.23046875 1.7265625 C-1.05234606 1.20345471 -1.05234606 1.20345471 0 0 Z " fill="#821A18" transform="translate(291,233)"/>
<path d="M0 0 C0 0.66 0 1.32 0 2 C-1.27846802 2.589021 -1.27846802 2.589021 -2.58276367 3.18994141 C-5.76615808 4.66533687 -8.94262899 6.15399554 -12.11547852 7.65185547 C-13.48536915 8.29523759 -14.85774428 8.93335878 -16.23266602 9.56591797 C-18.21800361 10.48045505 -20.19339203 11.41405752 -22.16796875 12.3515625 C-23.35672607 12.90666504 -24.5454834 13.46176758 -25.77026367 14.03369141 C-29.5163948 16.31438836 -31.39419978 18.51557464 -34 22 C-34.33 21.34 -34.66 20.68 -35 20 C-30.87993339 11.28447448 -24.53569974 9.26166721 -15.98828125 5.76953125 C-14.91964844 5.32996094 -13.85101563 4.89039063 -12.75 4.4375 C-11.73421875 4.02371094 -10.7184375 3.60992187 -9.671875 3.18359375 C-2.48514851 0 -2.48514851 0 0 0 Z " fill="#BA9796" transform="translate(311,161)"/>
<path d="M0 0 C1.875 0.25 1.875 0.25 4 1 C5.25 3.0625 5.25 3.0625 6 5 C5.34 5 4.68 5 4 5 C4.33 6.65 4.66 8.3 5 10 C3.35 10.33 1.7 10.66 0 11 C0 12.65 0 14.3 0 16 C-1.32 16 -2.64 16 -4 16 C-4 15.34 -4 14.68 -4 14 C-4.66 14 -5.32 14 -6 14 C-5.5939225 11.6447505 -5.35911431 10.32788697 -3.5625 8.6875 C-1.22161761 6.15934702 -0.80670456 3.28887243 0 0 Z " fill="#AC0912" transform="translate(218,256)"/>
<path d="M0 0 C1.67830848 3.35661695 0.6353188 6.36135594 0 10 C-0.99 10.495 -0.99 10.495 -2 11 C-2 10.34 -2 9.68 -2 9 C-2.99 9.495 -2.99 9.495 -4 10 C-4.2475 10.763125 -4.495 11.52625 -4.75 12.3125 C-6.40591764 15.87272292 -8.71208365 16.97128566 -12 19 C-12.33 19.66 -12.66 20.32 -13 21 C-13.99 21 -14.98 21 -16 21 C-16 20.34 -16 19.68 -16 19 C-15.34 19 -14.68 19 -14 19 C-13.7525 18.278125 -13.505 17.55625 -13.25 16.8125 C-11.87730408 13.72393418 -10.27646704 11.48988582 -8 9 C-7.34 9 -6.68 9 -6 9 C-5.7525 8.2575 -5.505 7.515 -5.25 6.75 C-3.90852699 3.79875938 -2.39094474 2.15185026 0 0 Z " fill="#A00F1A" transform="translate(256,203)"/>
<path d="M0 0 C0.66 0.33 1.32 0.66 2 1 C1.50628906 1.47050781 1.01257813 1.94101563 0.50390625 2.42578125 C-0.45708984 3.35970703 -0.45708984 3.35970703 -1.4375 4.3125 C-2.07558594 4.92738281 -2.71367187 5.54226562 -3.37109375 6.17578125 C-5.2221418 8.00644056 -5.2221418 8.00644056 -6 11 C-7.6015625 12.54296875 -7.6015625 12.54296875 -9.625 14.1875 C-13.87153297 17.77482388 -17.45237791 21.73176717 -21 26 C-21.33 25.01 -21.66 24.02 -22 23 C-18 19 -14 15 -10 11 C-9.7525 9.845 -9.505 8.69 -9.25 7.5 C-8.8375 6.345 -8.425 5.19 -8 4 C-5 2.6875 -5 2.6875 -2 2 C-1.34 1.34 -0.68 0.68 0 0 Z " fill="#E72623" transform="translate(346,154)"/>
<path d="M0 0 C0.33 0 0.66 0 1 0 C1.33 18.15 1.66 36.3 2 55 C2.66 55.33 3.32 55.66 4 56 C3.01 56.66 2.02 57.32 1 58 C0 57 0 57 -0.12025452 54.71580505 C-0.11803391 53.70542679 -0.11581329 52.69504852 -0.11352539 51.65405273 C-0.11344986 50.5129454 -0.11337433 49.37183807 -0.11329651 48.19615173 C-0.10813522 46.9545076 -0.10297394 45.71286346 -0.09765625 44.43359375 C-0.0962413 43.16983414 -0.09482635 41.90607452 -0.09336853 40.60401917 C-0.08870582 37.23875111 -0.0797148 33.8735501 -0.06866455 30.50830078 C-0.05844846 27.0765033 -0.05387049 23.64469891 -0.04882812 20.21289062 C-0.0377738 13.47524176 -0.0210171 6.73762475 0 0 Z " fill="#080808" transform="translate(173,301)"/>
<path d="M0 0 C0.33 0.99 0.66 1.98 1 3 C0.67 3.66 0.34 4.32 0 5 C1.32 4.67 2.64 4.34 4 4 C2.57250019 7.79049707 0.83763458 11.27122456 -1.125 14.8125 C-1.93324219 16.27623047 -1.93324219 16.27623047 -2.7578125 17.76953125 C-3.16773438 18.50558594 -3.57765625 19.24164063 -4 20 C-4.66 20 -5.32 20 -6 20 C-5.50104522 12.84831485 -2.68436185 6.58708719 0 0 Z " fill="#510B0F" transform="translate(196,292)"/>
<path d="M0 0 C0.99 0.33 1.98 0.66 3 1 C2.67 1.66 2.34 2.32 2 3 C1.34 3 0.68 3 0 3 C-0.22816406 3.54140625 -0.45632813 4.0828125 -0.69140625 4.640625 C-2.40518209 7.73053725 -4.5741913 10.12641502 -6.9375 12.75 C-7.81277344 13.73484375 -8.68804687 14.7196875 -9.58984375 15.734375 C-12 18 -12 18 -15 18 C-13.60249952 14.84164893 -11.94801766 12.67727175 -9.5 10.25 C-8.8915625 9.63640625 -8.283125 9.0228125 -7.65625 8.390625 C-6 7 -6 7 -4 7 C-4 5.68 -4 4.36 -4 3 C-2.1875 1.1875 -2.1875 1.1875 0 0 Z " fill="#632120" transform="translate(368,132)"/>
<path d="M0 0 C0.66 0.33 1.32 0.66 2 1 C1.360625 1.556875 0.72125 2.11375 0.0625 2.6875 C-2.20147144 4.81426883 -2.20147144 4.81426883 -2.4375 7.5625 C-3 10 -3 10 -5.5625 11.8125 C-6.366875 12.204375 -7.17125 12.59625 -8 13 C-8 12.34 -8 11.68 -8 11 C-8.99 11 -9.98 11 -11 11 C-9.52202738 7.32943063 -7.52384523 5.58914217 -4.375 3.25 C-3.55773437 2.63640625 -2.74046875 2.0228125 -1.8984375 1.390625 C-0.95871094 0.70226562 -0.95871094 0.70226562 0 0 Z " fill="#9D1017" transform="translate(247,255)"/>
<path d="M0 0 C0.6875 1.75 0.6875 1.75 1 4 C0.04422943 5.36538653 -0.96352976 6.69481525 -2 8 C-2.309375 9.010625 -2.61875 10.02125 -2.9375 11.0625 C-4.11414615 14.31558053 -5.02660751 15.32746672 -8 17 C-8.66 17 -9.32 17 -10 17 C-8.57394582 13.07297642 -6.70550338 9.75380481 -4.4375 6.25 C-3.81746094 5.28578125 -3.19742188 4.3215625 -2.55859375 3.328125 C-1 1 -1 1 0 0 Z " fill="#800C12" transform="translate(220,250)"/>
<path d="M0 0 C0.99 0 1.98 0 3 0 C2 3 2 3 -0.72265625 4.60546875 C-1.82480469 5.12753906 -2.92695313 5.64960938 -4.0625 6.1875 C-5.16722656 6.71730469 -6.27195312 7.24710938 -7.41015625 7.79296875 C-8.26480469 8.19128906 -9.11945313 8.58960938 -10 9 C-10 8.01 -10 7.02 -10 6 C-11.65 6.33 -13.3 6.66 -15 7 C-12.48397814 4.48397814 -10.32111136 3.99815529 -6.9375 2.9375 C-3.1759587 1.99691238 -3.1759587 1.99691238 0 0 Z " fill="#631F1B" transform="translate(291,233)"/>
<path d="M0 0 C0 0.99 0 1.98 0 3 C-1.1446875 3.185625 -1.1446875 3.185625 -2.3125 3.375 C-5.20267136 3.88102792 -5.20267136 3.88102792 -8 6 C-10.32548007 6.69356423 -12.65880445 7.36149212 -15 8 C-15.99 8.495 -15.99 8.495 -17 9 C-17.66 8.34 -18.32 7.68 -19 7 C-17.68 6.67 -16.36 6.34 -15 6 C-15 5.34 -15 4.68 -15 4 C-15.66 3.67 -16.32 3.34 -17 3 C-15.68 2.67 -14.36 2.34 -13 2 C-13 2.66 -13 3.32 -13 4 C-12.01 4.33 -11.02 4.66 -10 5 C-9.67 4.01 -9.34 3.02 -9 2 C-5.99208089 -0.04108797 -3.57804656 -0.19878036 0 0 Z " fill="#DB2D2F" transform="translate(326,157)"/>
<path d="M0 0 C0.66 0.33 1.32 0.66 2 1 C1.58685438 5.44926052 -1.50461527 7.84100104 -4.5625 10.75 C-5.08263672 11.25660156 -5.60277344 11.76320313 -6.13867188 12.28515625 C-7.41910084 13.53034405 -8.70867554 14.76611502 -10 16 C-10 12.22889411 -8.86672657 11.0319674 -6.6875 8 C-5.76517578 6.700625 -5.76517578 6.700625 -4.82421875 5.375 C-3.31351993 3.40818012 -1.80653533 1.68980535 0 0 Z " fill="#5C1115" transform="translate(223,276)"/>
<path d="M0 0 C-2.09840386 2.705659 -4.17455684 5.04471143 -7 7 C-10.17927381 7.31189078 -12.92928215 6.8286064 -16 6 C-13.68037291 3.68037291 -11.53490348 2.69014783 -8.5625 1.3125 C-7.59441406 0.85488281 -6.62632812 0.39726562 -5.62890625 -0.07421875 C-3 -1 -3 -1 0 0 Z " fill="#E93E32" transform="translate(362,140)"/>
<path d="M0 0 C-2.2128176 3.3192264 -2.7469895 3.50784578 -6.375 4.5625 C-8.78874998 5.2769377 -10.8900238 5.93969706 -13.1015625 7.15234375 C-15 8 -15 8 -18 7 C-16.43809911 3.87619823 -13.79634802 3.26836765 -10.6875 1.8125 C-9.53636719 1.26207031 -8.38523437 0.71164063 -7.19921875 0.14453125 C-4.08802369 -0.96850923 -2.96996762 -1.26865284 0 0 Z " fill="#BC8984" transform="translate(366,136)"/>
<path d="M0 0 C0.33 0 0.66 0 1 0 C1.0741205 5.35682133 1.12858776 10.71334462 1.16479492 16.07055664 C1.1798876 17.89320067 1.20036395 19.71580836 1.22631836 21.53833008 C1.26268103 24.157155 1.27972124 26.77550007 1.29296875 29.39453125 C1.30845261 30.21025101 1.32393646 31.02597076 1.33988953 31.8664093 C1.34160054 37.60944422 1.34160054 37.60944422 -0.52128601 39.73930359 C-1.00926163 40.1553334 -1.49723724 40.57136322 -2 41 C-2.495 39.515 -2.495 39.515 -3 38 C-1.515 37.505 -1.515 37.505 0 37 C0 24.79 0 12.58 0 0 Z " fill="#C3C0C1" transform="translate(213,216)"/>
<path d="M0 0 C0.33 0.66 0.66 1.32 1 2 C-0.87148597 5.6690975 -3.27776065 8.67716921 -6 11.75 C-6.680625 12.52859375 -7.36125 13.3071875 -8.0625 14.109375 C-10 16 -10 16 -13 17 C-11.51516897 13.76306836 -9.67292565 11.0674375 -7.5 8.25 C-6.58734375 7.05117187 -6.58734375 7.05117187 -5.65625 5.828125 C-5.1096875 5.22484375 -4.563125 4.6215625 -4 4 C-3.34 4 -2.68 4 -2 4 C-1.34 2.68 -0.68 1.36 0 0 Z " fill="#A4383B" transform="translate(276,179)"/>
<path d="M0 0 C0.66 0 1.32 0 2 0 C2 2.97 2 5.94 2 9 C1.278125 9.103125 0.55625 9.20625 -0.1875 9.3125 C-3.24491993 10.05986932 -5.38329635 11.28045189 -8 13 C-6.5360077 9.93124691 -4.85990364 7.09565257 -3 4.25 C-2.484375 3.45078125 -1.96875 2.6515625 -1.4375 1.828125 C-0.963125 1.22484375 -0.48875 0.6215625 0 0 Z " fill="#960B15" transform="translate(233,231)"/>
<path d="M0 0 C0.66 1.32 1.32 2.64 2 4 C1.01 5.485 1.01 5.485 0 7 C-0.38499891 8.65549531 -0.72793135 10.3222433 -1 12 C-1.66 12 -2.32 12 -3 12 C-3 12.66 -3 13.32 -3 14 C-3.99 14 -4.98 14 -6 14 C-5.43697042 10.05879291 -4.3208055 7.2491277 -2 4 C-1.34 4 -0.68 4 0 4 C0 2.68 0 1.36 0 0 Z " fill="#950B14" transform="translate(206,276)"/>
<path d="M0 0 C3.1875 0.875 3.1875 0.875 6 2 C5.67 2.99 5.34 3.98 5 5 C4.34 5 3.68 5 3 5 C3 5.66 3 6.32 3 7 C2.34 7 1.68 7 1 7 C0.67 7.99 0.34 8.98 0 10 C-1.0625 8.1875 -1.0625 8.1875 -2 6 C-1.67 5.01 -1.34 4.02 -1 3 C-1.66 2.67 -2.32 2.34 -3 2 C-2.01 1.34 -1.02 0.68 0 0 Z " fill="#D13931" transform="translate(266,245)"/>
<path d="M0 0 C1.67830848 3.35661695 0.6353188 6.36135594 0 10 C-0.99 10.495 -0.99 10.495 -2 11 C-2 10.34 -2 9.68 -2 9 C-4.51083114 10.25541557 -4.87125446 11.50063488 -6 14 C-6.42670076 10.51527717 -6.64789556 7.9813155 -4.6640625 4.9765625 C-3.16390788 3.25103253 -1.63343216 1.59940232 0 0 Z " fill="#B01019" transform="translate(256,203)"/>
<path d="M0 0 C0.66 0.33 1.32 0.66 2 1 C2 1.66 2 2.32 2 3 C1.36191406 3.26554688 0.72382813 3.53109375 0.06640625 3.8046875 C-0.75988281 4.15789062 -1.58617187 4.51109375 -2.4375 4.875 C-3.67306641 5.39707031 -3.67306641 5.39707031 -4.93359375 5.9296875 C-7.15746715 6.8244937 -7.15746715 6.8244937 -8 9 C-9.32 8.67 -10.64 8.34 -12 8 C-11 5 -11 5 -8.56640625 3.578125 C-7.57511719 3.13984375 -6.58382813 2.7015625 -5.5625 2.25 C-4.57378906 1.80140625 -3.58507812 1.3528125 -2.56640625 0.890625 C-1.29603516 0.44976562 -1.29603516 0.44976562 0 0 Z " fill="#9C6561" transform="translate(324,153)"/>
<path d="M0 0 C0.66 0 1.32 0 2 0 C2 0.66 2 1.32 2 2 C3.65 2 5.3 2 7 2 C3.50912907 6.0042343 1.35048061 7.62671065 -4 8 C-2.68 5.36 -1.36 2.72 0 0 Z " fill="#A50B16" transform="translate(239,247)"/>
<path d="M0 0 C2 2 2 2 2 6 C1.67 6.66 1.34 7.32 1 8 C-0.98 8 -2.96 8 -5 8 C-4.64950425 4.75791433 -4.43778819 3.38472296 -1.9375 1.1875 C-1.298125 0.795625 -0.65875 0.40375 0 0 Z " fill="#BA0D16" transform="translate(230,240)"/>
<path d="M0 0 C-1.56119422 0.79423861 -3.12401964 1.58527123 -4.6875 2.375 C-5.55761719 2.81585938 -6.42773438 3.25671875 -7.32421875 3.7109375 C-9.84772799 4.92664268 -12.38737532 5.99260958 -15 7 C-15 5.68 -15 4.36 -15 3 C-14.195625 2.87625 -13.39125 2.7525 -12.5625 2.625 C-11.716875 2.41875 -10.87125 2.2125 -10 2 C-9.67 1.34 -9.34 0.68 -9 0 C-5.58777852 -1.01444422 -3.37896371 -0.95821359 0 0 Z " fill="#800C12" transform="translate(261,243)"/>
<path d="M0 0 C0.66 0.33 1.32 0.66 2 1 C2.625 3.0625 2.625 3.0625 3 5 C-2.75 9 -2.75 9 -5 9 C-5 8.34 -5 7.68 -5 7 C-4.01 7 -3.02 7 -2 7 C-2.33 5.35 -2.66 3.7 -3 2 C-2.01 1.34 -1.02 0.68 0 0 Z " fill="#BC2624" transform="translate(262,246)"/>
<path d="M0 0 C0.99 0.33 1.98 0.66 3 1 C3 1.66 3 2.32 3 3 C2.34 3 1.68 3 1 3 C1 3.66 1 4.32 1 5 C1.66 5 2.32 5 3 5 C3 5.99 3 6.98 3 8 C0.36 7.67 -2.28 7.34 -5 7 C-1.125 1.125 -1.125 1.125 0 0 Z " fill="#EA1620" transform="translate(282,176)"/>
<path d="M0 0 C-0.33 1.65 -0.66 3.3 -1 5 C-8.75 3.125 -8.75 3.125 -11 2 C-7.17679443 0.57741188 -4.08718695 -0.24042276 0 0 Z " fill="#B4201C" transform="translate(275,243)"/>
<path d="M0 0 C-1.39332574 3.36720387 -2.9789286 4.9859524 -6 7 C-6.93423645 3.98968256 -7.04449911 3.13349732 -6 0 C-3.50907189 -1.24546405 -2.58919267 -0.7767578 0 0 Z " fill="#A51921" transform="translate(239,266)"/>
<path d="M0 0 C0.33 0.99 0.66 1.98 1 3 C-1.46611868 6.79402874 -4.05096615 8.87359716 -8 11 C-8.99 11.66 -9.98 12.32 -11 13 C-9.46356148 9.31930113 -7.21849055 7.01224796 -4.375 4.25 C-3.55773437 3.45078125 -2.74046875 2.6515625 -1.8984375 1.828125 C-0.95871094 0.92320312 -0.95871094 0.92320312 0 0 Z " fill="#750D0D" transform="translate(337,166)"/>
<path d="M0 0 C-1.1427919 1.16964602 -2.28931715 2.33564556 -3.4375 3.5 C-4.07558594 4.1496875 -4.71367187 4.799375 -5.37109375 5.46875 C-7 7 -7 7 -8 7 C-8 5.02 -8 3.04 -8 1 C-3.375 -1.125 -3.375 -1.125 0 0 Z " fill="#760A13" transform="translate(226,266)"/>
<path d="M0 0 C0.99 0.33 1.98 0.66 3 1 C2.0919838 2.13199353 1.17316174 3.25532363 0.25 4.375 C-0.26046875 5.00148437 -0.7709375 5.62796875 -1.296875 6.2734375 C-3.08199481 8.08312318 -4.67949644 9.00117455 -7 10 C-7 9.01 -7 8.02 -7 7 C-5.33720673 5.9935725 -3.67016516 4.99414593 -2 4 C-0.67206394 1.93299345 -0.67206394 1.93299345 0 0 Z " fill="#E91A23" transform="translate(321,179)"/>
<path d="M0 0 C0.33 0 0.66 0 1 0 C1.04898438 1.14339844 1.09796875 2.28679687 1.1484375 3.46484375 C1.22345189 4.95575473 1.29900028 6.44663892 1.375 7.9375 C1.4059375 8.69224609 1.436875 9.44699219 1.46875 10.22460938 C1.5726315 12.15507395 1.77895614 14.07942081 2 16 C2.66 16.33 3.32 16.66 4 17 C3.01 17.66 2.02 18.32 1 19 C0 18 0 18 -0.11352539 16.23413086 C-0.10828857 15.48526611 -0.10305176 14.73640137 -0.09765625 13.96484375 C-0.09443359 13.15595703 -0.09121094 12.34707031 -0.08789062 11.51367188 C-0.07951172 10.66353516 -0.07113281 9.81339844 -0.0625 8.9375 C-0.05798828 8.08349609 -0.05347656 7.22949219 -0.04882812 6.34960938 C-0.03700373 4.23304337 -0.01906769 2.11651315 0 0 Z " fill="#252525" transform="translate(173,340)"/>
<path d="M0 0 C0.721875 0.12375 1.44375 0.2475 2.1875 0.375 C1.3625 0.9525 0.5375 1.53 -0.3125 2.125 C-1.1375 2.8675 -1.9625 3.61 -2.8125 4.375 C-2.8125 5.695 -2.8125 7.015 -2.8125 8.375 C-3.8025 8.705 -4.7925 9.035 -5.8125 9.375 C-6.4725 8.385 -7.1325 7.395 -7.8125 6.375 C-3.50480769 0.46730769 -3.50480769 0.46730769 0 0 Z " fill="#F50A1A" transform="translate(273.8125,189.625)"/>
<path d="M0 0 C0.99 0.66 1.98 1.32 3 2 C1.125 7.75 1.125 7.75 0 10 C-0.66 10 -1.32 10 -2 10 C-1.54177532 6.53058454 -1.10868317 3.32604951 0 0 Z " fill="#27090E" transform="translate(192,302)"/>
<path d="M0 0 C0.33 0 0.66 0 1 0 C1.1875 2.875 1.1875 2.875 1 6 C0.01 6.66 -0.98 7.32 -2 8 C-3.05104383 9.63495707 -4.05988318 11.29883624 -5 13 C-5.33 12.34 -5.66 11.68 -6 11 C-4.78515625 8.3984375 -4.78515625 8.3984375 -3.0625 5.375 C-2.21365234 3.87066406 -2.21365234 3.87066406 -1.34765625 2.3359375 C-0.90292969 1.56507813 -0.45820313 0.79421875 0 0 Z " fill="#4E080C" transform="translate(205,274)"/>
<path d="M0 0 C0.33 0.99 0.66 1.98 1 3 C-2.01887244 6.48331435 -4.56909529 7.79157144 -9 9 C-6.31941902 5.42589203 -3.57410797 2.68058098 0 0 Z " fill="#F7E3DE" transform="translate(229,276)"/>
<path d="M0 0 C0.99 0.33 1.98 0.66 3 1 C3.66 0.67 4.32 0.34 5 0 C4.34 1.32 3.68 2.64 3 4 C2.34 4 1.68 4 1 4 C0.34 5.32 -0.32 6.64 -1 8 C-2.3418344 5.31633121 -1.73004953 3.84719317 -1 1 C-0.67 0.67 -0.34 0.34 0 0 Z " fill="#640A0F" transform="translate(212,274)"/>
<path d="M0 0 C0.66 0.99 1.32 1.98 2 3 C1.01 3.33 0.02 3.66 -1 4 C-1 4.66 -1 5.32 -1 6 C-2.65 5.67 -4.3 5.34 -6 5 C-6 4.01 -6 3.02 -6 2 C-4.02 2 -2.04 2 0 2 C0 1.34 0 0.68 0 0 Z " fill="#FA1C1F" transform="translate(318,161)"/>
<path d="M0 0 C0 0.66 0 1.32 0 2 C-6.4 5.07692308 -6.4 5.07692308 -9.4375 4.6875 C-9.953125 4.460625 -10.46875 4.23375 -11 4 C-4.5 0 -4.5 0 0 0 Z " fill="#B78583" transform="translate(311,161)"/>
<path d="M0 0 C0.66 0.33 1.32 0.66 2 1 C0.02 3.97 0.02 3.97 -2 7 C-2.33 6.34 -2.66 5.68 -3 5 C-4.32 5.33 -5.64 5.66 -7 6 C-4.74259377 3.66475218 -2.7194239 1.81294927 0 0 Z " fill="#FDE5E3" transform="translate(257,255)"/>
<path d="M0 0 C1.65 0.33 3.3 0.66 5 1 C3.625 3.5 3.625 3.5 2 6 C1.34 6 0.68 6 0 6 C-0.33 6.99 -0.66 7.98 -1 9 C-1.33 7.68 -1.66 6.36 -2 5 C-1.01 5 -0.02 5 1 5 C0.67 3.35 0.34 1.7 0 0 Z " fill="#D30F1B" transform="translate(290,210)"/>
<path d="M0 0 C0.99 0.33 1.98 0.66 3 1 C2.34 1.66 1.68 2.32 1 3 C0.10747287 4.19544543 -0.76643511 5.40493411 -1.625 6.625 C-2.29402344 7.57246094 -2.29402344 7.57246094 -2.9765625 8.5390625 C-3.48316406 9.26222656 -3.48316406 9.26222656 -4 10 C-4.33 9.34 -4.66 8.68 -5 8 C-4.2578125 6.30859375 -4.2578125 6.30859375 -3.125 4.4375 C-2.75632812 3.81746094 -2.38765625 3.19742188 -2.0078125 2.55859375 C-1 1 -1 1 0 0 Z " fill="#AA7272" transform="translate(281,173)"/>
<path d="M0 0 C2.31 0.33 4.62 0.66 7 1 C6.34 2.32 5.68 3.64 5 5 C4.67 4.34 4.34 3.68 4 3 C2.35 3.66 0.7 4.32 -1 5 C-0.67 3.35 -0.34 1.7 0 0 Z " fill="#FA241E" transform="translate(330,155)"/>
<path d="M0 0 C0.99 0 1.98 0 3 0 C3 1.32 3 2.64 3 4 C0 6 0 6 -2.1875 5.625 C-2.785625 5.41875 -3.38375 5.2125 -4 5 C-2.1875 2.5 -2.1875 2.5 0 0 Z " fill="#C2C2C2" transform="translate(210,145)"/>
<path d="M0 0 C0.66 0.33 1.32 0.66 2 1 C1.67 1.66 1.34 2.32 1 3 C0.34 3 -0.32 3 -1 3 C-1.33 3.99 -1.66 4.98 -2 6 C-2.33 5.67 -2.66 5.34 -3 5 C-4.66617115 4.95936168 -6.33388095 4.957279 -8 5 C-5.45378681 2.99940392 -3.01962385 1.20784954 0 0 Z " fill="#EF3D37" transform="translate(344,146)"/>
<path d="M0 0 C0.99 0.33 1.98 0.66 3 1 C1.19587357 4.26460973 0.16605307 5.88929795 -3 8 C-3.33 6.35 -3.66 4.7 -4 3 C-2.68 3.33 -1.36 3.66 0 4 C-0.33 3.01 -0.66 2.02 -1 1 C-0.67 0.67 -0.34 0.34 0 0 Z " fill="#E93028" transform="translate(351,146)"/>
<path d="M0 0 C0.33 1.32 0.66 2.64 1 4 C-1.4375 6.75 -1.4375 6.75 -4 9 C-4.33 8.34 -4.66 7.68 -5 7 C-3.35 4.69 -1.7 2.38 0 0 Z " fill="#59090F" transform="translate(220,250)"/>
<path d="M0 0 C0.66 0.33 1.32 0.66 2 1 C0.35 2.65 -1.3 4.3 -3 6 C-4.32 5.01 -5.64 4.02 -7 3 C-4.69631264 1.93347808 -2.35981813 0.93578995 0 0 Z " fill="#EE3432" transform="translate(330,153)"/>
<path d="M0 0 C0.66 0.33 1.32 0.66 2 1 C0.50902342 4.7952131 -1.75700849 6.61042731 -5 9 C-3.7508258 5.54074837 -2.32472205 2.85306797 0 0 Z " fill="#2F1112" transform="translate(217,283)"/>
<path d="M0 0 C0.66 0.33 1.32 0.66 2 1 C1.67 1.99 1.34 2.98 1 4 C1.66 4.33 2.32 4.66 3 5 C2.01 5.66 1.02 6.32 0 7 C0 6.34 0 5.68 0 5 C-0.99 5 -1.98 5 -3 5 C-1.125 1.125 -1.125 1.125 0 0 Z " fill="#8D131B" transform="translate(239,261)"/>
<path d="M0 0 C0.66 0.33 1.32 0.66 2 1 C1.67 1.66 1.34 2.32 1 3 C0.34 3 -0.32 3 -1 3 C-1.268125 3.61875 -1.53625 4.2375 -1.8125 4.875 C-3 7 -3 7 -6 9 C-4.68775452 5.06326356 -3.08089673 2.77280706 0 0 Z " fill="#420407" transform="translate(305,201)"/>
<path d="M0 0 C0.66 0.33 1.32 0.66 2 1 C2 1.99 2 2.98 2 4 C1.34 4 0.68 4 0 4 C0 4.99 0 5.98 0 7 C-1.32 7 -2.64 7 -4 7 C-2.79618552 4.50638429 -1.54571278 2.31856917 0 0 Z " fill="#971A20" transform="translate(261,196)"/>
<path d="M0 0 C2.475 0.495 2.475 0.495 5 1 C4.67 2.65 4.34 4.3 4 6 C2.62437146 4.71034824 1.29233607 3.37310707 0 2 C0 1.34 0 0.68 0 0 Z " fill="#F2111D" transform="translate(304,192)"/>
<path d="M0 0 C0.33 0.66 0.66 1.32 1 2 C-1.17508418 6.69360269 -1.17508418 6.69360269 -4.1875 7.8125 C-4.785625 7.874375 -5.38375 7.93625 -6 8 C-5.34 6.68 -4.68 5.36 -4 4 C-3.34 4 -2.68 4 -2 4 C-1.34 2.68 -0.68 1.36 0 0 Z " fill="#974B4C" transform="translate(276,179)"/>
<path d="M0 0 C0.33 0.66 0.66 1.32 1 2 C-1.31 3.32 -3.62 4.64 -6 6 C-6 4.35 -6 2.7 -6 1 C-4.02 0.67 -2.04 0.34 0 0 Z " fill="#740B12" transform="translate(238,254)"/>
<path d="M0 0 C0 0.66 0 1.32 0 2 C-0.66 2 -1.32 2 -2 2 C-2 2.66 -2 3.32 -2 4 C-2.66 4 -3.32 4 -4 4 C-4.33 4.99 -4.66 5.98 -5 7 C-5.66 5.68 -6.32 4.36 -7 3 C-2.25 0 -2.25 0 0 0 Z " fill="#A37F81" transform="translate(271,248)"/>
<path d="M0 0 C0.66 0.33 1.32 0.66 2 1 C1.690625 1.598125 1.38125 2.19625 1.0625 2.8125 C-0.10209704 5.08956772 -0.10209704 5.08956772 -1 8 C-1.99 7.34 -2.98 6.68 -4 6 C-4 5.34 -4 4.68 -4 4 C-3.34 4 -2.68 4 -2 4 C-2.33 3.01 -2.66 2.02 -3 1 C-2.01 0.67 -1.02 0.34 0 0 Z " fill="#F9101C" transform="translate(287,175)"/>
<path d="M0 0 C-1.75 2.0625 -1.75 2.0625 -4 4 C-6.25 3.75 -6.25 3.75 -8 3 C-7.67 2.01 -7.34 1.02 -7 0 C-2.25 -1.125 -2.25 -1.125 0 0 Z " fill="#DB7F7F" transform="translate(320,158)"/>
<path d="M0 0 C0.66 0.99 1.32 1.98 2 3 C0.71034824 4.37562854 -0.62689293 5.70766393 -2 7 C-2.66 7 -3.32 7 -4 7 C-2.79618552 4.50638429 -1.54571278 2.31856917 0 0 Z " fill="#AEABAC" transform="translate(193,315)"/>
<path d="M0 0 C0.33 1.32 0.66 2.64 1 4 C-0.98 5.32 -2.96 6.64 -5 8 C-3.62845496 5.04590299 -2.01136276 2.55991624 0 0 Z " fill="#600A0F" transform="translate(230,236)"/>
<path d="M0 0 C0.66 0 1.32 0 2 0 C1.8125 2.375 1.8125 2.375 1 5 C-1.5625 6.3125 -1.5625 6.3125 -4 7 C-2.79618552 4.50638429 -1.54571278 2.31856917 0 0 Z " fill="#750C13" transform="translate(248,212)"/>
<path d="M0 0 C0.33 0.66 0.66 1.32 1 2 C-3.455 3.485 -3.455 3.485 -8 5 C-6.29374499 2.21611025 -5.52373261 1.14615794 -2.3125 0.25 C-1.549375 0.1675 -0.78625 0.085 0 0 Z " fill="#D48C87" transform="translate(333,150)"/>
<path d="M0 0 C0.6875 1.8125 0.6875 1.8125 1 4 C-0.3125 5.75 -0.3125 5.75 -2 7 C-2.66 7 -3.32 7 -4 7 C-2.92598892 4.08482708 -2.22189824 2.22189824 0 0 Z " fill="#868788" transform="translate(200,305)"/>
<path d="M0 0 C0.66 0 1.32 0 2 0 C2.33 1.32 2.66 2.64 3 4 C2.01 4 1.02 4 0 4 C0 4.66 0 5.32 0 6 C-0.66 6 -1.32 6 -2 6 C-2 2 -2 2 0 0 Z " fill="#BB1817" transform="translate(257,249)"/>
<path d="M0 0 C0 1.32 0 2.64 0 4 C-1.65 4 -3.3 4 -5 4 C-5 3.01 -5 2.02 -5 1 C-2 0 -2 0 0 0 Z " fill="#C5362C" transform="translate(281,239)"/>
<path d="M0 0 C0.66 0.33 1.32 0.66 2 1 C0.02 3.31 -1.96 5.62 -4 8 C-5 5 -5 5 -4.25 2.875 C-3 1 -3 1 0 0 Z " fill="#C1141D" transform="translate(304,200)"/>
<path d="M0 0 C1.32 0.33 2.64 0.66 4 1 C1.94766315 3.2477975 0.99332739 4.0022242 -2 5 C-2 4.01 -2 3.02 -2 2 C-1.34 2 -0.68 2 0 2 C0 1.34 0 0.68 0 0 Z " fill="#F8121B" transform="translate(294,171)"/>
<path d="M0 0 C-0.33 0.99 -0.66 1.98 -1 3 C-2.9375 2.625 -2.9375 2.625 -5 2 C-5.33 1.34 -5.66 0.68 -6 0 C-3.50907189 -1.24546405 -2.58919267 -0.7767578 0 0 Z " fill="#FA141C" transform="translate(305,169)"/>
</svg>
